<svg xmlns="http://www.w3.org/2000/svg" viewBox="0 0 380 270" role="img" aria-label="Happy cartoon client beside a new car holding keys"><g stroke="#0f172a" stroke-width="6" stroke-linejoin="round" stroke-linecap="round"><path fill="#f59e0b" d="M120 220h238v-42l-27-14-39-45q-9-10-24-11h-69q-14 1-22 13l-28 43-29 6z"/><path fill="#dbeafe" d="m169 148 20-29q5-7 14-8h35l9 37zM252 111h15q10 1 16 8l27 29h-58z"/><circle fill="#0f172a" cx="170" cy="220" r="23"/><circle fill="#f8fafc" cx="170" cy="220" r="9"/><circle fill="#0f172a" cx="310" cy="220" r="23"/><circle fill="#f8fafc" cx="310" cy="220" r="9"/><circle fill="#f4b183" cx="76" cy="73" r="38"/><path fill="#0f172a" d="M39 68q1-42 37-42 37 0 38 42-19-16-38-13-18-3-37 13z"/><circle fill="#0f172a" stroke="none" cx="63" cy="75" r="4"/><circle fill="#0f172a" stroke="none" cx="89" cy="75" r="4"/><path fill="none" d="M63 92q13 12 26 0"/><path fill="#1e293b" d="M42 117q34-20 68 0v94H42z"/><path fill="#f8fafc" d="M77 118h13l-7 41z"/><path fill="#f4b183" d="M105 130q26 14 36 35l-15 11-31-29z"/><path fill="#f59e0b" d="m127 166 13-14 16 12-13 15z"/><path fill="#f8fafc" d="M48 210h27l-3 34H42zM83 210h27l7 34H87z"/></g></svg>